 <svg version="1.0" xmlns="http://www.w3.org/2000/svg"  width="300.000000pt" height="164.000000pt" viewBox="0 0 300.000000 164.000000"  preserveAspectRatio="xMidYMid meet">  <g transform="translate(0.000000,164.000000) scale(0.100000,-0.100000)" fill="#000000" stroke="none">
 <path d="M767 1164 c-13 -13 6 -80 29 -101 24 -22 24 -22 5 -53 l-18 -31 -31 36 c-17 19 -38 35 -47 35 -21 0 -19 -19 3 -27 38 -14 72 -47 72 -70 0 -28 -11 -29 -35 -3 -10 11 -24 20 -32 20 -23 0 -14 -14 20 -30 18 -8 40 -30 49 -49 10 -19 29 -46 42 -60 25 -24 26 -24 46 -6 38 34 95 -16 58 -53 -8 -8 -4 -14 18 -22 45 -18 64 -40 64 -77 0 -42 -14 -42 -78 0 -28 17 -59 37 -69 43 -15 10 -16 13 -4 28 19 22 7 32 -23 18 -34 -15 -62 -60 -50 -79 5 -8 50 -39 99 -70 73 -44 96 -53 120 -48 47 9 164 84 186 118 27 42 22 130 -8 173 l-21 30 38 32 c21 17 45 32 54 32 22 0 30 19 11 26 -9 4 -21 0 -28 -8 -7 -8 -40 -38 -74 -67 -55 -47 -64 -51 -83 -41 -18 10 -21 18 -17 44 5 30 1 35 -39 59 -39 23 -44 31 -44 62 0 19 5 35 11 35 16 0 149 -81 149 -91 0 -5 -4 -9 -10 -9 -5 0 -10 -7 -10 -15 0 -26 27 -17 59 20 33 38 35 44 23 60 -10 14 -187 115 -201 115 -26 0 -72 -33 -82 -58 -17 -45 -13 -109 10 -141 12 -16 57 -50 101 -76 111 -65 132 -101 91 -154 -20 -27 -41 -21 -41 11 0 28 -53 76 -128 116 -34 18 -68 43 -77 55 -17 24 -20 73 -5 82 6 3 10 22 10 41 0 20 5 44 10 55 14 25 5 24 -31 -2 -34 -24 -49 -17 -69 31 -9 22 -10 34 -1 43 15 19 -5 38 -22 21z m223 -81 c-34 -23 -40 -33 -40 -68 -1 -23 -3 -26 -10 -14 -12 21 8 87 29 92 36 10 44 6 21 -10z m13 -148 c12 -8 17 -15 11 -15 -19 0 -64 41 -58 52 4 7 10 5 16 -5 5 -9 18 -23 31 -32z m-171 -12 c3 -16 9 -37 13 -48 7 -19 7 -19 -9 -4 -10 9 -19 33 -21 53 -4 41 10 40 17 -1z m348 -135 c0 -17 -10 -6 -25 25 l-16 32 20 -25 c11 -14 21 -28 21 -32z m-82 -118 c25 0 10 -19 -31 -39 -55 -27 -62 -26 -43 1 9 12 16 36 16 52 l0 29 23 -21 c13 -12 29 -22 35 -22z"/> 
<!--  <path d="M1940 995 c0 -20 5 -25 25 -25 20 0 25 5 25 25 0 20 -5 25 -25 25 -20 0 -25 -5 -25 -25z"/> 
 <path d="M1575 998 c-28 -16 -35 -28 -35 -65 0 -35 15 -48 85 -68 28 -9 40 -18 40 -31 0 -26 -57 -31 -92 -9 -21 14 -27 15 -34 4 -23 -36 13 -59 91 -59 41 0 52 4 69 26 40 51 16 95 -64 115 -51 13 -62 24 -45 44 16 19 37 19 72 1 25 -13 29 -13 38 4 14 26 14 27 -21 39 -40 14 -78 14 -104 -1z"/> 
 <path d="M1765 925 c-19 -18 -25 -35 -25 -65 0 -55 34 -90 87 -90 37 0 83 22 83 39 0 14 -33 22 -44 11 -5 -5 -23 -10 -38 -10 -37 0 -57 38 -40 75 9 19 19 25 42 25 16 0 30 -5 30 -11 0 -14 42 -7 47 8 6 16 -49 43 -87 43 -19 0 -40 -9 -55 -25z"/> 
 <path d="M1940 860 c0 -89 0 -90 25 -90 25 0 25 1 25 90 0 89 0 90 -25 90 -25 0 -25 -1 -25 -90z"/> 
 <path d="M2030 860 c0 -87 1 -90 23 -90 21 0 22 4 22 57 0 50 3 59 24 69 23 12 41 32 41 47 0 13 -33 7 -52 -10 -17 -15 -18 -15 -18 0 0 10 -8 17 -20 17 -19 0 -20 -7 -20 -90z"/> 
 <path d="M2183 935 c-24 -17 -45 -77 -36 -103 14 -39 46 -62 88 -62 46 0 93 26 76 43 -7 7 -20 6 -41 -3 -34 -14 -80 -1 -80 23 0 9 17 12 71 9 l72 -4 -6 33 c-13 67 -91 101 -144 64z m78 -25 c36 -20 23 -40 -26 -40 -48 0 -62 19 -27 39 22 13 29 13 53 1z"/> 
 <path d="M1080 910 c0 -6 5 -8 10 -5 6 3 10 -1 10 -10 0 -10 -5 -13 -12 -9 -7 4 -8 3 -4 -4 10 -16 38 -2 34 17 -4 18 -38 28 -38 11z"/> 
 <path d="M707 883 c-4 -3 -7 -64 -7 -134 l0 -127 37 -7 c60 -11 140 -44 195 -81 58 -40 74 -39 27 0 -39 33 -128 79 -186 96 l-43 13 0 124 c0 112 -5 135 -23 116z"/> 
 <path d="M1270 767 l0 -123 -47 -13 c-57 -14 -161 -71 -188 -101 -25 -28 -29 -54 -7 -45 60 25 178 58 244 67 l78 11 0 144 c0 120 -2 143 -15 143 -13 0 -15 -21 -15 -130 l0 -129 -37 -6 c-60 -10 -174 -45 -216 -67 -60 -30 -55 -14 7 25 51 31 114 55 189 71 l27 6 0 135 c0 83 -4 135 -10 135 -6 0 -10 -48 -10 -123z"/> 
 <path d="M640 705 l0 -145 28 0 c52 0 212 -38 267 -64 77 -35 69 -17 -9 22 -61 30 -133 52 -218 67 l-38 6 0 129 c0 109 -2 130 -15 130 -13 0 -15 -23 -15 -145z"/> 
 <path d="M874 809 c-9 -15 12 -33 30 -26 9 4 16 13 16 22 0 17 -35 21 -46 4z"/> 
 <path d="M1540 661 c0 -10 -3 -32 -6 -49 l-6 -31 71 0 71 0 0 30 c0 38 -2 43 -18 46 -17 2 -52 -32 -52 -52 0 -9 -10 -15 -26 -15 -27 0 -28 5 -8 73 4 11 0 17 -10 17 -9 0 -16 -8 -16 -19z m110 -40 c0 -22 -16 -36 -24 -22 -8 12 3 41 15 41 5 0 9 -9 9 -19z"/> 
 <path d="M1800 646 c0 -19 -3 -41 -6 -50 -3 -9 -2 -16 3 -16 5 0 14 23 19 50 8 40 8 50 -3 50 -8 0 -13 -12 -13 -34z"/>
 <path d="M2269 668 c-5 -71 -3 -92 10 -96 9 -3 11 1 6 17 -3 11 -2 28 3 37 10 19 4 54 -9 54 -5 0 -9 -6 -10 -12z"/> 
 <path d="M1738 653 c-11 -3 -18 -14 -18 -27 0 -13 -3 -38 -6 -55 -4 -20 -3 -31 5 -31 6 0 11 9 11 19 0 12 8 21 21 23 30 4 47 33 33 55 -12 19 -22 22 -46 16z m30 -35 c-4 -27 -28 -36 -28 -10 0 20 8 32 22 32 5 0 8 -10 6 -22z"/>
 <path d="M1839 639 c-28 -28 -21 -53 17 -57 29 -3 32 -1 36 32 3 28 0 36 -15 40 -10 2 -27 -4 -38 -15z m31 -18 c0 -22 -16 -36 -24 -22 -8 12 3 41 15 41 5 0 9 -9 9 -19z"/> 
 <path d="M1910 650 c0 -5 7 -10 15 -10 21 0 19 -13 -5 -35 -11 -10 -18 -20 -15 -23 9 -10 55 -11 55 -1 0 5 -7 9 -16 9 -13 0 -12 5 5 29 11 15 18 31 14 35 -10 10 -53 7 -53 -4z"/> 
 <path d="M1985 643 c-29 -28 -11 -75 25 -66 16 4 30 30 30 59 0 19 -39 24 -55 7z m29 -36 c-3 -9 -10 -17 -15 -17 -11 0 -12 34 -2 44 11 11 24 -9 17 -27z"/> 
 <path d="M2096 644 c-31 -30 -7 -81 32 -67 20 8 14 22 -8 16 -11 -3 -20 0 -20 6 0 6 11 11 25 11 30 0 34 25 6 40 -15 7 -23 6 -35 -6z"/> 
 <path d="M2173 653 c-18 -7 -16 -32 2 -39 24 -10 17 -26 -7 -19 -21 7 -22 6 -7 -9 9 -10 22 -14 32 -10 21 8 22 44 2 44 -8 0 -15 5 -15 11 0 6 7 8 16 5 10 -4 14 -1 12 6 -5 14 -18 18 -35 11z"/> 
 <path d="M2428 636 c-15 -29 -16 -29 -23 -7 -9 30 -47 25 -55 -8 -3 -14 -12 -27 -19 -29 -10 -3 -11 3 -6 27 4 18 3 31 -3 31 -15 0 -20 -59 -6 -71 20 -16 54 7 54 37 0 31 15 24 24 -12 5 -19 2 -30 -11 -40 -17 -14 -17 -15 2 -12 21 3 69 80 62 101 -2 6 -11 -1 -19 -17z"/> 
 -->
 <path d="M2464 639 c-25 -27 -14 -54 24 -57 31 -3 32 -2 32 35 0 32 -3 39 -20 39 -12 0 -28 -8 -36 -17z m34 -21 c-4 -27 -28 -36 -28 -10 0 20 8 32 22 32 5 0 8 -10 6 -22z"/> 
 </g> 
 </svg> 